# xmcd CD database file
# Generated: Tue Jun 4 23:55:44 2002 by KSCD
# 
# Track frame offsets:
#       150
#       21095
#       39970
#       58430
#       81288
#       98980
#       120376
#       137153
#       154767
#       173512
#       185846
#       203720
#
# Disc length: 3302 seconds
#
# Revision: 1
# Processed by: cddbd v1.4PL0 Copyright (c) Steve Scherf et al.
# Submitted via: Kscd 1.3.2
#
DISCID=9f0ce40c
DTITLE=Sarah McLachlan -  Fumbling Towards Ecstasy
DYEAR=1900
DGENRE=
TTITLE0=Possession
TTITLE1=Wait
TTITLE2=Plenty
TTITLE3=Good Enough
TTITLE4=Mary
TTITLE5=Elsewhere
TTITLE6=Circle
TTITLE7=Ice
TTITLE8=Hold On
TTITLE9=Ice Cream
TTITLE10=Fear
TTITLE11=Fumbling Towards Ecstacy
EXTD=Sarah McLachlan:  Fumbling Towards Ecstasy
EXTT0=
EXTT1=
EXTT2=
EXTT3=
EXTT4=
EXTT5=
EXTT6=
EXTT7=
EXTT8=
EXTT9=
EXTT10=
EXTT11=
PLAYORDER=
